<svg width="92" height="29" viewBox="0 0 92 29" fill="none" xmlns="http://www.w3.org/2000/svg">
<path d="M10.1367 23H0.996094V19.0156H10.1367C10.4102 19.0156 10.6445 18.918 10.8398 18.7227C11.0352 18.5273 11.1328 18.293 11.1328 18.0195C11.1328 17.7363 11.0352 17.5508 10.8398 17.4629C10.6445 17.375 10.4102 17.3311 10.1367 17.3311H5.97656C5.2832 17.3311 4.63379 17.1992 4.02832 16.9355C3.42285 16.6719 2.89551 16.3154 2.44629 15.8662C1.99707 15.4072 1.64062 14.875 1.37695 14.2695C1.12305 13.6641 0.996094 13.0146 0.996094 12.3213C0.996094 11.6279 1.12305 10.9785 1.37695 10.373C1.64062 9.76758 1.99707 9.24023 2.44629 8.79102C2.89551 8.3418 3.42285 7.99023 4.02832 7.73633C4.63379 7.47266 5.2832 7.34082 5.97656 7.34082H14.0771V11.3252H5.97656C5.70312 11.3252 5.46875 11.4229 5.27344 11.6182C5.07812 11.8135 4.98047 12.0479 4.98047 12.3213C4.98047 12.6045 5.07812 12.8486 5.27344 13.0537C5.46875 13.249 5.70312 13.3467 5.97656 13.3467H10.1367C10.8203 13.3467 11.4648 13.4639 12.0703 13.6982C12.6758 13.9229 13.2031 14.2402 13.6523 14.6504C14.1016 15.0605 14.458 15.5537 14.7217 16.1299C14.9854 16.7061 15.1172 17.3359 15.1172 18.0195C15.1172 18.7129 14.9854 19.3623 14.7217 19.9678C14.458 20.5635 14.1016 21.0908 13.6523 21.5498C13.2031 21.999 12.6758 22.3555 12.0703 22.6191C11.4648 22.873 10.8203 23 10.1367 23ZM22.4842 28.9766H18.4559V7.31152H19.4227L21.0193 9.20117C21.3807 8.85938 21.7762 8.53711 22.2059 8.23438C22.6355 7.93164 23.0799 7.67285 23.5389 7.45801C24.0076 7.2334 24.491 7.05762 24.9891 6.93066C25.4871 6.80371 25.99 6.74023 26.4979 6.74023C27.6014 6.74023 28.6365 6.94043 29.6033 7.34082C30.5799 7.73145 31.4295 8.28809 32.1521 9.01074C32.8846 9.7334 33.4607 10.6074 33.8807 11.6328C34.3006 12.6484 34.5105 13.7764 34.5105 15.0166C34.5105 16.3057 34.3006 17.4678 33.8807 18.5029C33.4607 19.5283 32.8846 20.4023 32.1521 21.125C31.4295 21.8379 30.5799 22.3848 29.6033 22.7656C28.6365 23.1465 27.6014 23.3369 26.4979 23.3369C26.1463 23.3369 25.7947 23.2979 25.4432 23.2197C25.1014 23.1416 24.7596 23.0391 24.4178 22.9121C24.0857 22.7754 23.7537 22.624 23.4217 22.458C23.0994 22.292 22.7869 22.1211 22.4842 21.9453V28.9766ZM30.4969 15.0166C30.4969 14.3525 30.3895 13.7568 30.1746 13.2295C29.9695 12.7021 29.6863 12.2578 29.325 11.8965C28.9637 11.5254 28.5389 11.2422 28.0506 11.0469C27.5623 10.8516 27.0447 10.7539 26.4979 10.7539C25.951 10.7539 25.4334 10.8516 24.9451 11.0469C24.4666 11.2422 24.0467 11.5254 23.6854 11.8965C23.324 12.2578 23.0359 12.7021 22.8211 13.2295C22.616 13.7568 22.5135 14.3525 22.5135 15.0166C22.5135 15.6514 22.616 16.2324 22.8211 16.7598C23.0359 17.2871 23.324 17.7363 23.6854 18.1074C24.0467 18.4785 24.4666 18.7666 24.9451 18.9717C25.4334 19.1768 25.951 19.2793 26.4979 19.2793C27.0447 19.2793 27.5623 19.1768 28.0506 18.9717C28.5389 18.7666 28.9637 18.4785 29.325 18.1074C29.6863 17.7363 29.9695 17.2871 30.1746 16.7598C30.3895 16.2324 30.4969 15.6514 30.4969 15.0166ZM42.6539 3.04883C42.6539 3.41992 42.5807 3.7666 42.4342 4.08887C42.2975 4.41113 42.107 4.69434 41.8629 4.93848C41.6188 5.17285 41.3307 5.36328 40.9986 5.50977C40.6764 5.64648 40.3297 5.71484 39.9586 5.71484C39.5875 5.71484 39.2359 5.64648 38.9039 5.50977C38.5816 5.36328 38.2984 5.17285 38.0543 4.93848C37.8199 4.69434 37.6295 4.41113 37.483 4.08887C37.3463 3.7666 37.2779 3.41992 37.2779 3.04883C37.2779 2.6875 37.3463 2.3457 37.483 2.02344C37.6295 1.69141 37.8199 1.4082 38.0543 1.17383C38.2984 0.929687 38.5816 0.739258 38.9039 0.602539C39.2359 0.456055 39.5875 0.382812 39.9586 0.382812C40.3297 0.382812 40.6764 0.456055 40.9986 0.602539C41.3307 0.739258 41.6188 0.929687 41.8629 1.17383C42.107 1.4082 42.2975 1.69141 42.4342 2.02344C42.5807 2.3457 42.6539 2.6875 42.6539 3.04883ZM41.9654 23H37.9371V7.31152H41.9654V23ZM50.2553 23H46.227V1.07129H50.2553V23ZM58.5451 23H54.5168V1.07129H58.5451V23ZM77.1316 3.04883C77.1316 3.41992 77.0584 3.7666 76.9119 4.08887C76.7752 4.41113 76.5848 4.69434 76.3406 4.93848C76.0965 5.17285 75.8084 5.36328 75.4764 5.50977C75.1541 5.64648 74.8074 5.71484 74.4363 5.71484C74.0652 5.71484 73.7137 5.64648 73.3816 5.50977C73.0594 5.36328 72.7762 5.17285 72.532 4.93848C72.2977 4.69434 72.1072 4.41113 71.9607 4.08887C71.824 3.7666 71.7557 3.41992 71.7557 3.04883C71.7557 2.6875 71.824 2.3457 71.9607 2.02344C72.1072 1.69141 72.2977 1.4082 72.532 1.17383C72.7762 0.929687 73.0594 0.739258 73.3816 0.602539C73.7137 0.456055 74.0652 0.382812 74.4363 0.382812C74.8074 0.382812 75.1541 0.456055 75.4764 0.602539C75.8084 0.739258 76.0965 0.929687 76.3406 1.17383C76.5848 1.4082 76.7752 1.69141 76.9119 2.02344C77.0584 2.3457 77.1316 2.6875 77.1316 3.04883ZM76.4432 23H72.4148V7.31152H76.4432V23ZM88.5709 23C87.6041 23 86.6959 22.8193 85.8463 22.458C84.9967 22.0869 84.2496 21.584 83.6051 20.9492C82.9703 20.3047 82.4674 19.5576 82.0963 18.708C81.735 17.8584 81.5543 16.9502 81.5543 15.9834V11.3252H79.6061V7.34082H81.5543V1.07129H85.5387V7.34082H91.6031V11.3252H85.5387V15.9834C85.5387 16.4033 85.6168 16.7988 85.773 17.1699C85.9293 17.5312 86.1441 17.8486 86.4176 18.1221C86.691 18.3955 87.0133 18.6152 87.3844 18.7812C87.7555 18.9375 88.151 19.0156 88.5709 19.0156H91.6031V23H88.5709Z" fill="#C5CAA9"/>
</svg>
